<svg width="28" height="28" viewBox="0 0 28 28" fill="none" xmlns="http://www.w3.org/2000/svg">
<path fill-rule="evenodd" clip-rule="evenodd" d="M0 13.5904C0 20.3101 5.05115 25.8973 11.6565 27.0298L11.7345 26.9692C11.7085 26.9643 11.6825 26.9593 11.6565 26.9543V17.3655H8.15955V13.5904H11.6565V10.5703C11.6565 7.17271 13.9101 5.28516 17.0962 5.28516C18.1064 5.28516 19.1944 5.43616 20.2046 5.58717V9.06026H18.4173C16.7076 9.06026 16.3191 9.89079 16.3191 10.9478V13.5904H20.0492L19.4275 17.3655H16.3191V26.9543C16.2931 26.9593 16.2671 26.9643 16.2411 26.9692L16.3191 27.0298C22.9244 25.8973 27.9756 20.3101 27.9756 13.5904C27.9756 6.11568 21.6811 0 13.9878 0C6.29451 0 0 6.11568 0 13.5904Z" fill="white"/>
</svg>
