<svg width="28" height="27" viewBox="0 0 28 27" fill="none" xmlns="http://www.w3.org/2000/svg">
<path d="M13.7228 0.414062C10.0392 0.414062 9.57693 0.429712 8.13016 0.493683C6.68621 0.557929 5.70059 0.780042 4.83818 1.10594C3.9461 1.44254 3.18937 1.89281 2.43546 2.62559C1.68099 3.3581 1.21757 4.09335 0.870005 4.95984C0.533743 5.79806 0.304858 6.75597 0.239867 8.15839C0.175157 9.56411 0.158203 10.0136 0.158203 13.5926C0.158203 17.1717 0.174593 17.6195 0.24015 19.0252C0.306554 20.4282 0.535156 21.3858 0.870288 22.2238C1.21701 23.0905 1.68042 23.8258 2.43461 24.5583C3.18824 25.2914 3.94497 25.7427 4.83648 26.0793C5.69946 26.4052 6.68536 26.6273 8.12903 26.6916C9.5758 26.7555 10.0378 26.7712 13.7212 26.7712C17.4051 26.7712 17.8659 26.7555 19.3127 26.6916C20.7567 26.6273 21.7434 26.4052 22.6064 26.0793C23.4982 25.7427 24.2538 25.2914 25.0074 24.5583C25.7619 23.8258 26.2253 23.0905 26.5729 22.224C26.9063 21.3858 27.1352 20.4279 27.203 19.0255C27.268 17.6198 27.2849 17.1717 27.2849 13.5926C27.2849 10.0136 27.268 9.56438 27.203 8.15867C27.1352 6.7557 26.9063 5.79806 26.5729 4.96012C26.2253 4.09335 25.7619 3.3581 25.0074 2.62559C24.2529 1.89253 23.4985 1.44227 22.6055 1.10594C21.7409 0.780042 20.7547 0.557929 19.3107 0.493683C17.864 0.429712 17.4034 0.414062 13.7186 0.414062H13.7228ZM12.5061 2.78895C12.8672 2.7884 13.2702 2.78895 13.7228 2.78895C17.3443 2.78895 17.7735 2.80158 19.2036 2.86473C20.5261 2.92348 21.2438 3.13818 21.7219 3.31856C22.3549 3.55743 22.8062 3.84296 23.2806 4.30421C23.7553 4.76546 24.0492 5.20475 24.2956 5.81975C24.4813 6.28374 24.7025 6.98111 24.7627 8.26602C24.8277 9.65526 24.8418 10.0726 24.8418 13.5896C24.8418 17.1066 24.8277 17.524 24.7627 18.9132C24.7022 20.1981 24.4813 20.8955 24.2956 21.3595C24.0498 21.9745 23.7553 22.4124 23.2806 22.8734C22.8059 23.3346 22.3552 23.6201 21.7219 23.859C21.2444 24.0402 20.5261 24.2544 19.2036 24.3131C17.7738 24.3763 17.3443 24.39 13.7228 24.39C10.1011 24.39 9.67188 24.3763 8.24206 24.3131C6.91962 24.2538 6.20188 24.0391 5.72348 23.8587C5.09052 23.6199 4.6384 23.3343 4.16368 22.8731C3.68895 22.4118 3.39508 21.9737 3.14868 21.3584C2.96302 20.8944 2.74177 20.197 2.68158 18.9121C2.61659 17.5229 2.60359 17.1055 2.60359 13.5863C2.60359 10.0671 2.61659 9.65196 2.68158 8.26272C2.74205 6.97781 2.96302 6.28045 3.14868 5.8159C3.39451 5.2009 3.68895 4.76162 4.16368 4.30037C4.6384 3.83912 5.09052 3.55358 5.72348 3.31417C6.2016 3.13297 6.91962 2.91881 8.24206 2.85979C9.49329 2.80487 9.97819 2.7884 12.5061 2.78566V2.78895ZM20.9629 4.97714C20.0644 4.97714 19.3353 5.68467 19.3353 6.55802C19.3353 7.4311 20.0644 8.13945 20.9629 8.13945C21.8615 8.13945 22.5906 7.4311 22.5906 6.55802C22.5906 5.68494 21.8615 4.97659 20.9629 4.97659V4.97714ZM13.7228 6.82489C9.87618 6.82489 6.75742 9.85513 6.75742 13.5926C6.75742 17.3301 9.87618 20.359 13.7228 20.359C17.5695 20.359 20.6871 17.3301 20.6871 13.5926C20.6871 9.85513 17.5692 6.82489 13.7226 6.82489H13.7228ZM13.7228 9.19977C16.2197 9.19977 18.244 11.1664 18.244 13.5926C18.244 16.0186 16.2197 17.9855 13.7228 17.9855C11.2257 17.9855 9.20168 16.0186 9.20168 13.5926C9.20168 11.1664 11.2257 9.19977 13.7228 9.19977V9.19977Z" fill="white"/>
</svg>
