<svg width="28" height="28" viewBox="0 0 28 28" fill="none" xmlns="http://www.w3.org/2000/svg">
<path d="M13.5646 0C9.88102 0 9.41873 0.0161074 7.97196 0.081949C6.52801 0.148073 5.54239 0.376682 4.67998 0.712106C3.78789 1.05855 3.03116 1.52199 2.27726 2.2762C1.52279 3.03012 1.05937 3.78688 0.711802 4.67871C0.37554 5.54143 0.146655 6.52736 0.0816635 7.97078C0.0169543 9.4176 0 9.88019 0 13.5639C0 17.2477 0.0163895 17.7086 0.0819465 19.1554C0.148351 20.5994 0.376953 21.585 0.712085 22.4474C1.0588 23.3396 1.52222 24.0963 2.27641 24.8502C3.03003 25.6047 3.78676 26.0693 4.67828 26.4157C5.54126 26.7512 6.52716 26.9798 7.97082 27.0459C9.4176 27.1117 9.87961 27.1278 13.5629 27.1278C17.2469 27.1278 17.7077 27.1117 19.1545 27.0459C20.5985 26.9798 21.5852 26.7512 22.4482 26.4157C23.34 26.0693 24.0956 25.6047 24.8492 24.8502C25.6037 24.0963 26.0671 23.3396 26.4147 22.4477C26.7481 21.585 26.977 20.5991 27.0448 19.1557C27.1098 17.7088 27.1267 17.2477 27.1267 13.5639C27.1267 9.88019 27.1098 9.41788 27.0448 7.97107C26.977 6.52707 26.7481 5.54143 26.4147 4.67899C26.0671 3.78688 25.6037 3.03012 24.8492 2.2762C24.0947 1.5217 23.3403 1.05827 22.4473 0.712106C21.5827 0.376682 20.5965 0.148073 19.1525 0.081949C17.7058 0.0161074 17.2452 0 13.5604 0H13.5646ZM12.3479 2.44433C12.709 2.44377 13.112 2.44433 13.5646 2.44433C17.1861 2.44433 17.6153 2.45733 19.0454 2.52232C20.3679 2.5828 21.0856 2.80378 21.5637 2.98943C22.1967 3.23528 22.648 3.52916 23.1224 4.0039C23.5971 4.47864 23.891 4.93077 24.1374 5.56375C24.3231 6.04132 24.5443 6.75907 24.6045 8.08156C24.6695 9.51142 24.6836 9.94094 24.6836 13.5608C24.6836 17.1807 24.6695 17.6102 24.6045 19.0401C24.544 20.3626 24.3231 21.0803 24.1374 21.5579C23.8916 22.1909 23.5971 22.6416 23.1224 23.116C22.6477 23.5908 22.197 23.8847 21.5637 24.1305C21.0862 24.317 20.3679 24.5374 19.0454 24.5979C17.6156 24.6629 17.1861 24.677 13.5646 24.677C9.9429 24.677 9.51367 24.6629 8.08385 24.5979C6.76141 24.5369 6.04368 24.3159 5.56528 24.1302C4.93231 23.8844 4.4802 23.5905 4.00547 23.1158C3.53075 22.641 3.23688 22.19 2.99047 21.5567C2.80482 21.0792 2.58357 20.3614 2.52338 19.0389C2.45839 17.6091 2.44539 17.1796 2.44539 13.5574C2.44539 9.93529 2.45839 9.50803 2.52338 8.07817C2.58385 6.75568 2.80482 6.03792 2.99047 5.5598C3.23631 4.92681 3.53075 4.47468 4.00547 3.99994C4.4802 3.52521 4.93231 3.23132 5.56528 2.98491C6.04339 2.79841 6.76141 2.57799 8.08385 2.51724C9.33509 2.46072 9.81998 2.44377 12.3479 2.44094V2.44433ZM20.8047 4.69651C19.9062 4.69651 19.1771 5.42472 19.1771 6.32361C19.1771 7.22222 19.9062 7.95129 20.8047 7.95129C21.7033 7.95129 22.4324 7.22222 22.4324 6.32361C22.4324 5.425 21.7033 4.69594 20.8047 4.69594V4.69651ZM13.5646 6.59828C9.71797 6.59828 6.59921 9.71714 6.59921 13.5639C6.59921 17.4107 9.71797 20.5282 13.5646 20.5282C17.4113 20.5282 20.5289 17.4107 20.5289 13.5639C20.5289 9.71714 17.411 6.59828 13.5644 6.59828H13.5646ZM13.5646 9.04262C16.0615 9.04262 18.0858 11.0667 18.0858 13.5639C18.0858 16.0608 16.0615 18.0852 13.5646 18.0852C11.0675 18.0852 9.04347 16.0608 9.04347 13.5639C9.04347 11.0667 11.0675 9.04262 13.5646 9.04262Z" fill="#58585A"/>
</svg>
