<svg width="23" height="23" viewBox="0 0 23 23" fill="none" xmlns="http://www.w3.org/2000/svg">
<path d="M2.98864 6.18942C4.51463 6.18942 5.75169 4.9875 5.75169 3.50487C5.75169 2.02223 4.51463 0.820312 2.98864 0.820312C1.46265 0.820312 0.225586 2.02223 0.225586 3.50487C0.225586 4.9875 1.46265 6.18942 2.98864 6.18942Z" fill="white"/>
<path d="M8.28218 8.17341H12.8615V10.2116C12.8615 10.2116 14.1041 7.79691 17.4852 7.79691C20.5012 7.79691 22.9997 9.24048 22.9997 13.6406V22.9192H18.2543V14.7649C18.2543 12.1693 16.828 11.8838 15.7411 11.8838C13.4856 11.8838 13.0994 13.7741 13.0994 15.1035V22.9192H8.28218V8.17341Z" fill="white"/>
<path d="M0.580015 8.17335H5.39726V22.9191H0.580015V8.17335Z" fill="white"/>
</svg>
