<svg width="24" height="25" viewBox="0 0 24 25" fill="none" xmlns="http://www.w3.org/2000/svg">
<path fill-rule="evenodd" clip-rule="evenodd" d="M20.94 11.2227C20.48 7.05266 17.17 3.74266 13 3.28266V1.22266H11V3.28266C6.83 3.74266 3.52 7.05266 3.06 11.2227H1V13.2227H3.06C3.52 17.3927 6.83 20.7027 11 21.1627V23.2227H13V21.1627C17.17 20.7027 20.48 17.3927 20.94 13.2227H23V11.2227H20.94ZM12 19.2227C8.13 19.2227 5 16.0927 5 12.2227C5 8.35266 8.13 5.22266 12 5.22266C15.87 5.22266 19 8.35266 19 12.2227C19 16.0927 15.87 19.2227 12 19.2227Z" fill="#798196"/>
</svg>
